# xmcd
#
# Track frame offsets: 
#        150
#        27521
#        54740
#        99033
#        139494
#        162006
#        196887
#        275858
#        307398
#
# Disc length: 4541 seconds
#
# Revision: 0
# Processed by: cddbd v1.5.2PL0 Copyright (c) Steve Scherf et al.
# Submitted via: ExactAudioCopy v0.99pb4
#
DISCID=8511bb09
DTITLE=Allman Brothers Band - 1973-12-31 Live at the Cow Palace cd1
DYEAR=1973
DGENRE=Blues
TTITLE0=Wasted words
TTITLE1=Done somebody wrong
TTITLE2=One way out
TTITLE3=Stormy Monday
TTITLE4=Midnight rider
TTITLE5=Blue Sky
TTITLE6=In memory of Elizabeth Reed
TTITLE7=Statesboro Blues
TTITLE8=Southbound
EXTD=
EXTT0=
EXTT1=
EXTT2=
EXTT3=
EXTT4=
EXTT5=
EXTT6=
EXTT7=
EXTT8=
PLAYORDER=
